<svg xmlns="http://www.w3.org/2000/svg" viewBox="0 0 800 500">
  <rect width="800" height="500" fill="#FAF7F2"/>
  <rect x="60" y="200" width="140" height="70" rx="10" fill="#FFFFFF" stroke="#E7E1D6"/>
  <text x="130" y="240" font-family="monospace" font-size="11" fill="#1C1A17" text-anchor="middle">Student</text>
  <path d="M200 235 L 280 235" stroke="#5B564E" stroke-width="2" marker-end="url(#a2)"/>
  <rect x="280" y="200" width="160" height="70" rx="10" fill="#FFFFFF" stroke="#E7E1D6"/>
  <text x="360" y="240" font-family="monospace" font-size="11" fill="#1C1A17" text-anchor="middle">Eligibility Check</text>
  <path d="M440 235 L 520 235" stroke="#5B564E" stroke-width="2" marker-end="url(#a2)"/>
  <rect x="520" y="120" width="160" height="70" rx="10" fill="#FFFFFF" stroke="#E7E1D6"/>
  <text x="600" y="160" font-family="monospace" font-size="11" fill="#1C1A17" text-anchor="middle">Enroll</text>
  <path d="M600 190 L 600 210" stroke="#5B564E" stroke-width="2" marker-end="url(#a2)"/>
  <rect x="520" y="280" width="160" height="70" rx="10" fill="#FFFFFF" stroke="#E7E1D6"/>
  <text x="600" y="320" font-family="monospace" font-size="11" fill="#1C1A17" text-anchor="middle">Waitlist</text>
  <path d="M600 210 Q 640 245 600 280" stroke="#B5472B" stroke-width="2" fill="none" marker-end="url(#a3)"/>
  <defs>
    <marker id="a2" markerWidth="10" markerHeight="10" refX="8" refY="3" orient="auto"><path d="M0,0 L8,3 L0,6 z" fill="#5B564E"/></marker>
    <marker id="a3" markerWidth="10" markerHeight="10" refX="8" refY="3" orient="auto"><path d="M0,0 L8,3 L0,6 z" fill="#B5472B"/></marker>
  </defs>
  <text x="60" y="420" font-family="monospace" font-size="12" fill="#5B564E">UML activity diagram — registration workflow</text>
</svg>
